<svg width="400" height="130"><defs id="SvgjsDefs1071"></defs><g id="SvgjsG1072" featurekey="root" fill="#ffffff"></g><g id="SvgjsG1073" featurekey="symbol1" fill="#01a982" transform="matrix(1.2023179803347501,0,0,1.2023179803347501,-15.095835463862084,3.9884100983262494)"><g id="SvgjsG1074"><path xmlns="http://www.w3.org/2000/svg" d="M 49.96875 5 C 30.71975 5 20.705 20 20.875 35 C 21.111 56.833 42.70075 65 49.96875 95 C 57.24775 65 79.09375 56.358 79.09375 35 C 79.09375 20 67.78775 5 49.96875 5 z M 50 12.5 L 67 29.5 L 33 29.5 L 50 12.5 z M 37.96875 31.625 L 62 31.625 L 62 55.6875 L 37.96875 55.6875 L 37.96875 31.625 z M 42.0625 35.71875 L 42.0625 42.46875 L 48.78125 42.46875 L 48.78125 35.71875 L 42.0625 35.71875 z M 51.1875 35.71875 L 51.1875 42.46875 L 57.9375 42.46875 L 57.9375 35.71875 L 51.1875 35.71875 z M 42.0625 44.84375 L 42.0625 51.59375 L 48.78125 51.59375 L 48.78125 44.84375 L 42.0625 44.84375 z M 51.1875 44.84375 L 51.1875 51.59375 L 57.9375 51.59375 L 57.9375 44.84375 L 51.1875 44.84375 z "></path></g></g><g id="SvgjsG1075" featurekey="text1" fill="#01a982" transform="matrix(2.779632532381407,0,0,2.779632532381407,96.66444016588306,20.87546110176601)"><path d="M8.76 7.24 l1 0 l0 12.76 l-1 0 l0 -6.32 l-6.56 0 l0 6.32 l-1 0 l0 -12.76 l1 0 l0 5.44 l6.56 0 l0 -5.44 z M18.76 11.36 c0.66 0.88 0.98 2.12 0.98 3.68 s-0.32 2.8 -0.98 3.68 c-0.34 0.48 -0.8 0.84 -1.32 1.08 c-0.52 0.26 -1.14 0.38 -1.82 0.38 s-1.3 -0.12 -1.82 -0.38 c-0.52 -0.24 -0.96 -0.6 -1.32 -1.08 c-0.66 -0.88 -0.98 -2.12 -0.98 -3.68 s0.32 -2.8 0.98 -3.68 c0.36 -0.48 0.8 -0.84 1.32 -1.08 c0.52 -0.26 1.14 -0.38 1.82 -0.38 s1.3 0.12 1.82 0.38 c0.52 0.24 0.98 0.6 1.32 1.08 z M17.96 18.12 c0.52 -0.7 0.78 -1.74 0.78 -3.08 s-0.26 -2.38 -0.78 -3.08 s-1.3 -1.06 -2.34 -1.06 c-1.02 0 -1.82 0.36 -2.34 1.06 s-0.78 1.74 -0.78 3.08 s0.26 2.38 0.78 3.08 s1.32 1.06 2.34 1.06 c1.04 0 1.82 -0.36 2.34 -1.06 z M27.520000000000003 10.7 c0.68 0.62 1.02 1.54 1.02 2.74 l0 6.56 l-1 0 l0 -6.56 c0 -0.92 -0.24 -1.58 -0.7 -2 c-0.64 -0.58 -1.58 -0.54 -1.86 -0.52 c-1.44 0.14 -2.84 1.68 -2.84 3.08 l0 6 l-1 0 l-0.02 -9.88 l1 -0.02 l0 1.38 c0.72 -0.84 1.72 -1.46 2.76 -1.56 c0.5 -0.04 1.72 -0.06 2.64 0.78 z M37.14 13.379999999999999 l0 2.04 l-5.96 1.4 c0.04 0.96 0.28 1.62 0.78 2 c0.64 0.48 1.76 0.5 3.3 0.06 c0.38 -0.1 1.26 -0.38 1.54 -0.48 l0.34 0.94 c-0.26 0.08 -1.2 0.4 -1.6 0.5 c-0.82 0.24 -1.56 0.36 -2.18 0.36 c-0.82 0 -1.5 -0.2 -2.02 -0.6 c-0.76 -0.58 -1.16 -1.56 -1.16 -2.94 l0 -0.04 l0 -3.24 c0 -0.76 0.14 -1.4 0.4 -1.92 c0.24 -0.48 0.58 -0.84 1.02 -1.1 c0.7 -0.42 1.46 -0.48 2.06 -0.48 s1.36 0.06 2.06 0.48 c0.44 0.26 0.78 0.62 1.02 1.1 c0.26 0.52 0.4 1.16 0.4 1.92 z M36.14 14.620000000000001 l0 -1.24 c0 -2.22 -1.32 -2.5 -2.48 -2.5 s-2.48 0.28 -2.48 2.5 l0 2.42 z M45.82000000000001 10.1 l1 0 c0.22 2.6 -0.7 4.78 -1.66 6.6 c-0.9 1.66 -2.16 3.9 -3.12 4.98 c-1.14 1.32 -2.26 2 -3.3 2 c-0.14 0 -0.28 -0.02 -0.42 -0.04 l0.18 -0.98 c0.08 0 0.16 0.02 0.24 0.02 c0.92 0 1.88 -0.88 2.54 -1.64 c0.24 -0.28 0.52 -0.64 0.82 -1.1 c-0.02 -0.02 -0.02 -0.04 -0.02 -0.04 c-0.14 -0.26 -0.3 -0.52 -0.48 -0.8 c-1.32 -2.22 -3.26 -5.46 -2.92 -9 l1.02 0 c-0.36 3.26 1.5 6.36 2.76 8.5 c0.08 0.14 0.16 0.26 0.24 0.4 c0.48 -0.78 1 -1.72 1.58 -2.78 c0.94 -1.78 1.78 -3.76 1.54 -6.12 z M54.36000000000001 10.24 c0.98 0.54 1.62 1.72 1.62 3 l0 3.42 c0 1.2 -0.34 2.12 -1.02 2.74 c-0.74 0.66 -1.66 0.8 -2.24 0.8 c-0.16 0 -0.3 -0.02 -0.4 -0.02 c-1.04 -0.12 -2.04 -0.72 -2.76 -1.56 l0 4.98 l-1 0 l0 -7.28 l0 -4.76 c-0.4 -0.34 -0.66 -0.9 -0.66 -1.46 l1 0 c0 0.26 0.12 0.62 0.44 0.78 c0.4 0.22 1.04 0.1 1.78 -0.36 c1.14 -0.72 2.28 -0.82 3.24 -0.28 z M54.98000000000001 16.66 l0 -3.42 c0 -0.9 -0.44 -1.76 -1.12 -2.12 c-0.62 -0.36 -1.38 -0.26 -2.22 0.24 c-0.76 0.48 -1.36 0.64 -1.86 0.64 c-0.06 0 -0.14 -0.02 -0.22 -0.02 l0 4.12 c0 1.4 1.42 2.94 2.86 3.08 c0.28 0.02 1.22 0.06 1.86 -0.52 c0.46 -0.42 0.7 -1.08 0.7 -2 z M64.58000000000001 11.36 c0.66 0.88 0.98 2.12 0.98 3.68 s-0.32 2.8 -0.98 3.68 c-0.34 0.48 -0.8 0.84 -1.32 1.08 c-0.52 0.26 -1.14 0.38 -1.82 0.38 s-1.3 -0.12 -1.82 -0.38 c-0.52 -0.24 -0.96 -0.6 -1.32 -1.08 c-0.66 -0.88 -0.98 -2.12 -0.98 -3.68 s0.32 -2.8 0.98 -3.68 c0.36 -0.48 0.8 -0.84 1.32 -1.08 c0.52 -0.26 1.14 -0.38 1.82 -0.38 s1.3 0.12 1.82 0.38 c0.52 0.24 0.98 0.6 1.32 1.08 z M63.78000000000001 18.12 c0.52 -0.7 0.78 -1.74 0.78 -3.08 s-0.26 -2.38 -0.78 -3.08 s-1.3 -1.06 -2.34 -1.06 c-1.02 0 -1.82 0.36 -2.34 1.06 s-0.78 1.74 -0.78 3.08 s0.26 2.38 0.78 3.08 s1.32 1.06 2.34 1.06 c1.04 0 1.82 -0.36 2.34 -1.06 z M72.86000000000001 19.04 l0.22 0.96 c-0.58 0.14 -1.1 0.2 -1.56 0.2 l-0.28 0 c-0.72 -0.04 -1.32 -0.26 -1.8 -0.64 c-0.72 -0.58 -1.1 -1.56 -1.1 -2.9 l0 -5.4 l-1.78 0 l0 -1 l1.78 0 l0 -2.66 l1 0 l0 2.66 l2.9 0 l0 1 l-2.9 0 l0 5.4 c0 1.02 0.24 1.74 0.74 2.12 c0.56 0.46 1.5 0.54 2.78 0.26 z"></path></g></svg>
