<svg xmlns="http://www.w3.org/2000/svg" version="1.1" viewBox="0 0 16 20" x="0px" y="0px"><path d="m14 1-9 2.41211v7.85742a2 2 0 0 0-1-0.26953 2 2 0 0 0-2 2 2 2 0 0 0 2 2 2 2 0 0 0 2-2v-7.85547l7-1.87695v6.00195a2 2 0 0 0-1-0.26953 2 2 0 0 0-2 2 2 2 0 0 0 2 2 2 2 0 0 0 2-2v-8.97852z" style="paint-order:fill markers stroke;"/><text x="0" y="31" fill="#000000" font-size="5px" font-weight="bold" font-family="'Helvetica Neue', Helvetica, Arial-Unicode, Arial, Sans-serif">Created by Frey Wazza</text><text x="0" y="36" fill="#000000" font-size="5px" font-weight="bold" font-family="'Helvetica Neue', Helvetica, Arial-Unicode, Arial, Sans-serif">from the Noun Project</text></svg>
