<svg xmlns="http://www.w3.org/2000/svg" xmlns:xlink="http://www.w3.org/1999/xlink" version="1.1" x="0px" y="0px" viewBox="0 0 100 125" enable-background="new 0 0 100 100" xml:space="preserve"><g><path fill="#000000" d="M66.68,51.4l-0.48-1.759c1.608-0.477,3.892-1.47,3.508-3.225c-0.583-2.667-2.255-2.417-5-2.417v0.182   l-3.382-12.375c-0.39-1.17-1.376-2.081-3.074-2.081c0,0-5.341-0.391-14.166-0.546h-13.67v0.001   c-8.825,0.155-14.166,0.546-14.166,0.546c-1.697,0-2.702,0.618-3.074,2.081L9.814,44.111V44c-2.745,0-4.417-0.25-5,2.417   c-0.382,1.749,1.883,2.742,3.49,3.22l-0.482,1.765c-2.424,0.562-3.072,2.909-3.072,5.724v1.182v8.197v9.369h4.771v7.603   c0,0.808,0.785,1.464,1.756,1.464h4.686c0.971,0,1.758-0.656,1.758-1.464v-7.603h39.059v7.603c0,0.808,0.787,1.464,1.758,1.464   h4.686c0.969,0,1.756-0.656,1.756-1.464v-7.603h4.771v-9.369v-8.197v-1.182C69.75,54.311,69.104,51.963,66.68,51.4z M16.021,33.892   c0.258-0.745,1.238-1.417,2.764-1.417c0,0,13.886-0.317,18.445-0.317s18.48,0.317,18.48,0.317c1.527,0,2.452,0.635,2.766,1.417   l2.986,13.696c0,0.783-0.077,1.416-1.604,1.416H14.639c-1.525,0-1.604-0.633-1.604-1.416L16.021,33.892z M14.998,65.615   c-2.75,0-4.977-2.229-4.977-4.978s2.228-4.978,4.977-4.978s4.979,2.229,4.979,4.978S17.747,65.615,14.998,65.615z M59.502,65.615   c-2.749,0-4.979-2.229-4.979-4.978s2.229-4.978,4.979-4.978c2.75,0,4.979,2.229,4.979,4.978S62.252,65.615,59.502,65.615z"/><path fill="#000000" d="M84.77,22.837c-0.283-0.175-0.604-0.293-0.954-0.352c-0.352-0.058-0.747-0.088-1.187-0.088h-2.68v4.702   h2.68c0.439,0,0.835-0.034,1.187-0.098c0.351-0.066,0.671-0.184,0.954-0.353c0.287-0.168,0.507-0.405,0.66-0.713   c0.154-0.308,0.23-0.705,0.23-1.187c0-0.483-0.076-0.878-0.23-1.186C85.276,23.254,85.057,23.013,84.77,22.837z"/><path fill="#000000" d="M92.25,15.061h-19c-1.657,0-3,1.343-3,3v19c0,1.657,1.343,3,3,3h7.5v42.781c0,1.158,0.896,2.098,2,2.098   s2-0.939,2-2.098V40.061h7.5c1.657,0,3-1.343,3-3v-19C95.25,16.404,93.907,15.061,92.25,15.061z M88.692,26.638   c-0.205,0.601-0.527,1.139-0.967,1.614c-0.44,0.476-1.007,0.849-1.702,1.121c-0.695,0.271-1.513,0.406-2.449,0.406h-3.625v5.625   H76.5V19.718h7.074c0.937,0,1.754,0.136,2.449,0.406c0.695,0.271,1.262,0.646,1.702,1.121c0.439,0.476,0.762,1.014,0.967,1.615   c0.204,0.601,0.308,1.23,0.308,1.89S88.896,26.038,88.692,26.638z"/></g></svg>
