<svg width="290" height="81"><defs id="SvgjsDefs1076"></defs><g id="SvgjsG1077" featurekey="root" fill="#076362"></g><g id="SvgjsG1078" featurekey="symbol1" fill="##01A982" transform="matrix(1.4583333333333333,0,0,1.4583333333333333,-24.791666666666664,-251.21354166666663)"><g id="SvgjsG1079"><path fill="#01A982" d="M41,176.375c-13.255,0-24,10.745-24,24s10.745,24,24,24s24-10.745,24-24S54.255,176.375,41,176.375z   M51.917,199.186h-0.5v10.476c0,1.77-1.444,3.215-3.215,3.215h-3.571c0.014-0.127,0.036-0.25,0.036-0.38v-7.813  c0-2.201-1.688-4-3.75-4c-2.062,0-3.75,1.799-3.75,4v7.813c0,0.13,0.024,0.253,0.036,0.38h-3.571c-1.768,0-3.215-1.445-3.215-3.215  v-10.476h-0.5c-2.2,0-2.727-1.273-1.171-2.83l9.342-9.342c1.557-1.557,4.104-1.557,5.658,0l9.342,9.342  C54.646,197.912,54.117,199.186,51.917,199.186z"></path></g></g><g id="SvgjsG1080" featurekey="text1" fill="#01A982" transform="matrix(4.352464635436719,0,0,4.352464635436719,86.46881310129439,-33.52464220353345)"><path d="M4.58 18.34 c2.22 0.26 3.82 0.6 3.82 2.86 c0 2.08 -1.5 2.9 -3.44 2.9 l-0.78 0 c-1.9 0 -3.08 -0.9 -3.36 -2.52 c-0.04 -0.18 0.06 -0.3 0.26 -0.3 l0.74 0 c0.18 0 0.3 0.1 0.34 0.28 c0.24 0.92 0.82 1.34 2.02 1.34 l0.8 0 c1.26 0 2.14 -0.4 2.14 -1.7 c0 -1.34 -1.02 -1.54 -2.54 -1.7 c-2.3 -0.22 -3.62 -0.68 -3.62 -2.84 c0 -1.94 1.3 -2.72 3.28 -2.72 l0.62 0 c1.9 0 3.18 0.9 3.26 2.7 c0 0.2 -0.06 0.32 -0.28 0.32 l-0.68 0 c-0.2 0 -0.32 -0.1 -0.36 -0.32 c-0.1 -1.04 -0.74 -1.54 -1.98 -1.54 l-0.54 0 c-1.28 0 -2.06 0.4 -2.06 1.56 c0 1.24 0.84 1.52 2.36 1.68 z M10.700000000000001 10 l0.68 0 c0.2 0 0.3 0.1 0.3 0.3 l0 8.48 l4.56 -4.58 c0.12 -0.12 0.22 -0.2 0.38 -0.2 l0.88 0 c0.24 0 0.32 0.26 0.12 0.46 l-4 3.98 l4.5 5.12 c0.18 0.22 0.08 0.44 -0.16 0.44 l-0.74 0 c-0.22 0 -0.32 -0.06 -0.5 -0.26 l-3.96 -4.46 l-1.08 1.06 l0 3.36 c0 0.2 -0.1 0.3 -0.3 0.3 l-0.68 0 c-0.2 0 -0.3 -0.1 -0.3 -0.3 l0 -13.4 c0 -0.2 0.1 -0.3 0.3 -0.3 z M25.78 15.12 c-0.08 0.18 -0.22 0.22 -0.4 0.16 c-0.3 -0.1 -0.62 -0.16 -1.04 -0.16 l-0.24 0 c-1.52 0 -2.4 0.9 -2.7 1.42 l0 7.16 c0 0.2 -0.1 0.3 -0.3 0.3 l-0.68 0 c-0.2 0 -0.3 -0.1 -0.3 -0.3 l0 -9.4 c0 -0.2 0.1 -0.3 0.3 -0.3 l0.68 0 c0.2 0 0.3 0.1 0.3 0.3 l0 1.2 c0.72 -1.08 1.82 -1.58 3.16 -1.58 c0.46 0 0.92 0.06 1.32 0.2 c0.2 0.08 0.26 0.22 0.16 0.4 z M27.94 10.3 c0 -0.2 0.1 -0.3 0.3 -0.3 l0.62 0 c0.2 0 0.3 0.1 0.3 0.3 l0 0.7 c0 0.2 -0.1 0.3 -0.3 0.3 l-0.62 0 c-0.2 0 -0.3 -0.1 -0.3 -0.3 l0 -0.7 z M27.9 14.3 c0 -0.2 0.1 -0.3 0.3 -0.3 l0.68 0 c0.2 0 0.3 0.1 0.3 0.3 l0 9.4 c0 0.2 -0.1 0.3 -0.3 0.3 l-0.68 0 c-0.2 0 -0.3 -0.1 -0.3 -0.3 l0 -9.4 z M31.779999999999998 10.3 c0 -0.2 0.1 -0.3 0.3 -0.3 l0.68 0 c0.2 0 0.3 0.1 0.3 0.3 l0 13.4 c0 0.2 -0.1 0.3 -0.3 0.3 l-0.68 0 c-0.2 0 -0.3 -0.1 -0.3 -0.3 l0 -13.4 z M35.46 10.3 c0 -0.2 0.1 -0.3 0.3 -0.3 l0.68 0 c0.2 0 0.3 0.1 0.3 0.3 l0 13.4 c0 0.2 -0.1 0.3 -0.3 0.3 l-0.68 0 c-0.2 0 -0.3 -0.1 -0.3 -0.3 l0 -13.4 z M46.699999999999996 23.82 c0.02 0.08 0.04 0.18 -0.06 0.18 l-0.94 0 c-0.22 0 -0.32 -0.2 -0.32 -0.48 l0 -1.1 c-0.58 0.96 -1.44 1.68 -2.82 1.68 l-0.84 0 c-1.82 0 -2.98 -1.04 -2.98 -3.02 c0 -2 1.14 -2.88 2.94 -2.88 l3.7 0 l0 -0.68 c0 -1.88 -0.48 -2.4 -2.2 -2.4 l-0.42 0 c-1.06 0 -1.78 0.18 -2.42 0.52 c-0.2 0.1 -0.4 0.12 -0.48 -0.06 l-0.26 -0.56 c-0.06 -0.14 -0.06 -0.24 0.14 -0.36 c0.82 -0.52 1.92 -0.74 3.02 -0.74 l0.42 0 c2.48 0 3.48 1.14 3.48 3.62 l0 5.98 c0 0.1 0.02 0.22 0.04 0.3 z M42.62 22.9 c1.5 0 2.36 -0.8 2.76 -1.92 l0 -1.68 l-3.66 0 c-1.08 0 -1.7 0.42 -1.7 1.78 c0 1.34 0.62 1.82 1.7 1.82 l0.9 0 z"></path></g></svg>
