<svg xmlns="http://www.w3.org/2000/svg" xmlns:xlink="http://www.w3.org/1999/xlink" version="1.1" x="0px" y="0px" viewBox="0 0 96 120" enable-background="new 0 0 96 96" xml:space="preserve"><g><rect x="8.768" y="39.962" width="21.037" height="3.912"/><path d="M25.441,36.415c0-3.393-2.761-6.154-6.155-6.154s-6.155,2.76-6.155,6.154v2.547h12.31V36.415z"/><path d="M19.286,29.518c2.421,0,4.39-1.969,4.39-4.388c0-2.421-1.969-4.39-4.39-4.39c-2.42,0-4.389,1.969-4.388,4.39   C14.898,27.549,16.867,29.518,19.286,29.518z"/><path d="M54.02,36.415c0-3.393-2.761-6.154-6.153-6.154c-3.393,0-6.155,2.76-6.155,6.154H41.71v2.547h12.31V36.415z"/><rect x="37.348" y="39.962" width="21.036" height="3.912"/><path d="M47.865,29.518c2.421,0,4.391-1.969,4.391-4.388c0-2.421-1.97-4.39-4.391-4.39c-2.42,0-4.388,1.969-4.389,4.39   C43.476,27.549,45.445,29.518,47.865,29.518z"/><path d="M76.98,29.518c2.42,0,4.391-1.969,4.391-4.388c0-2.421-1.971-4.39-4.391-4.39c-2.418,0-4.388,1.969-4.389,4.39   C72.592,27.549,74.561,29.518,76.98,29.518z"/><rect x="66.463" y="39.962" width="21.037" height="3.912"/><path d="M83.135,36.415c0-3.393-2.761-6.154-6.154-6.154c-3.393,0-6.154,2.76-6.154,6.154h-0.001v2.547h12.31V36.415z"/><path d="M12.864,70.348h12.309v-2.547c0-3.393-2.76-6.154-6.154-6.154s-6.155,2.761-6.155,6.154V70.348z"/><rect x="8.5" y="71.348" width="21.037" height="3.912"/><path d="M19.018,60.904c2.421,0,4.39-1.969,4.39-4.389s-1.969-4.391-4.39-4.391c-2.42,0-4.389,1.971-4.388,4.391   C14.63,58.936,16.599,60.904,19.018,60.904z"/><path d="M41.442,67.801v2.547h12.31v-2.547c0-3.393-2.761-6.154-6.154-6.154S41.443,64.407,41.442,67.801L41.442,67.801z"/><rect x="37.079" y="71.348" width="21.037" height="3.912"/><path d="M47.598,60.904c2.421,0,4.39-1.969,4.39-4.389s-1.969-4.391-4.39-4.391c-2.42,0-4.389,1.971-4.389,4.391   S45.178,60.904,47.598,60.904z"/><rect x="66.193" y="71.348" width="21.037" height="3.912"/><path d="M70.559,70.348h12.31v-2.547c0-3.393-2.761-6.154-6.154-6.154s-6.155,2.761-6.155,6.154V70.348z"/><path d="M76.713,60.904c2.421,0,4.391-1.969,4.391-4.389s-1.97-4.391-4.391-4.391c-2.42,0-4.389,1.971-4.389,4.391   S74.293,60.904,76.713,60.904z"/></g></svg>
