<svg xmlns="http://www.w3.org/2000/svg" xmlns:xlink="http://www.w3.org/1999/xlink" version="1.1" x="0px" y="0px" viewBox="0 0 2000 2500" style="enable-background:new 0 0 2000 2000;" xml:space="preserve"><g><path d="M1360,204.5v1591c0,112.5,92,204.5,204.5,204.5h106c112.5,0,204.5-92,204.5-204.5v-1591C1875,92,1783,0,1670.5,0h-106   C1452,0,1360,92,1360,204.5z M1485,233.5c0-59.7,48.8-108.5,108.5-108.5h48c59.7,0,108.5,48.8,108.5,108.5v1533   c0,59.7-48.8,108.5-108.5,108.5h-48c-59.7,0-108.5-48.8-108.5-108.5V233.5z"/><path d="M743,852.5V1036v727v32.5c0,112.5,92,204.5,204.5,204.5h106c112.5,0,204.5-92,204.5-204.5v-59.1V1036V852.5   c0-112.5-92-204.5-204.5-204.5h-106C835,648,743,740,743,852.5z M868,881.5c0-59.7,48.8-108.5,108.5-108.5h48   c59.7,0,108.5,48.8,108.5,108.5V1036v675v55.5c0,59.7-48.8,108.5-108.5,108.5h-48c-59.7,0-108.5-48.8-108.5-108.5V1711v-675V881.5z   "/><path d="M125,1384.5V1685v110.5c0,112.5,92,204.5,204.5,204.5h106c112.5,0,204.5-92,204.5-204.5V1685v-300.5   c0-112.5-92-204.5-204.5-204.5h-106C217,1180,125,1272,125,1384.5z M250,1413.5c0-59.7,48.8-108.5,108.5-108.5h48   c59.7,0,108.5,48.8,108.5,108.5V1685v81.5c0,59.7-48.8,108.5-108.5,108.5h-48c-59.7,0-108.5-48.8-108.5-108.5V1685V1413.5z"/></g><text x="0" y="2015" fill="#000000" font-size="5px" font-weight="bold" font-family="'Helvetica Neue', Helvetica, Arial-Unicode, Arial, Sans-serif">Created by Linker</text><text x="0" y="2020" fill="#000000" font-size="5px" font-weight="bold" font-family="'Helvetica Neue', Helvetica, Arial-Unicode, Arial, Sans-serif">from the Noun Project</text></svg>