<svg xmlns="http://www.w3.org/2000/svg" data-name="Layer 1" viewBox="0 0 100 125" x="0px" y="0px"><title>dog</title><path d="M51.41,40A38.86,38.86,0,0,0,68.11,49,46.21,46.21,0,0,0,74,50.14l.31-.84,1.84-2.9,4.76.21a4,4,0,0,0,3.78-1.15L88.11,37c1.54-1.82.12-4.49-2.65-5l-13-6.61,1.85-7.77c-1.89-.39-3.85.58-5.33,2.38l1.31-5.52C66,13.57,61.44,17.68,60,23.75c-.05.23-.07.45-.11.67l.08,0Zm17.42-9.7a1.75,1.75,0,1,1,0,2.47A1.75,1.75,0,0,1,68.83,30.31Z"/><path d="M67.23,52.23a42.88,42.88,0,0,1-17.51-9.14l-1.41,2.56-1.41,2.22-19.78.44-.28,0A19.38,19.38,0,0,1,13.16,32.52a18.93,18.93,0,0,0,8.69,21.69V78.69a5.35,5.35,0,0,0,10.7,0v-7.5h24.8v7.35a5.35,5.35,0,0,0,10.7,0v-12a2.17,2.17,0,0,0,.09-.56l4.7-12.56A50.24,50.24,0,0,1,67.23,52.23Z"/></svg>
