<svg xmlns="http://www.w3.org/2000/svg" xmlns:xlink="http://www.w3.org/1999/xlink" version="1.1" x="0px" y="0px" viewBox="0 0 100 125" style="enable-background:new 0 0 100 100;" xml:space="preserve"><path d="M90.6,11.3c0-1-0.9-1.9-1.9-1.9L59,7.9c-0.6,0-1.1,0.2-1.5,0.6L10.9,55.2C7,59.1,7,65.4,10.9,69.3l19.8,19.8  c1.9,1.9,4.5,2.9,7.1,2.9c2.6,0,5.1-1,7.1-2.9l46.7-46.7c0.4-0.4,0.6-0.9,0.6-1.5L90.6,11.3z M42,86.3c-2.3,2.3-6.1,2.3-8.5,0  L13.7,66.5c-1.1-1.1-1.8-2.6-1.8-4.2c0-1.6,0.6-3.1,1.8-4.2l46-46l27,1.3l1.3,27L42,86.3z M75.2,24.8c-1.3-1.3-3.1-2-4.9-2  s-3.6,0.7-5,2.1c-2.7,2.7-2.7,7.2,0,9.9c1.3,1.3,3.1,2,5,2s3.6-0.7,4.9-2c1.3-1.3,2.1-3.1,2.1-5C77.3,27.9,76.5,26.1,75.2,24.8  L75.2,24.8z M72.4,31.9c-1.1,1.1-3.1,1.1-4.2,0c-1.2-1.2-1.2-3.1,0-4.2c0.6-0.6,1.3-0.9,2.1-0.9c0.8,0,1.6,0.3,2.1,0.9c0,0,0,0,0,0  c0.6,0.6,0.9,1.3,0.9,2.1C73.3,30.5,73,31.3,72.4,31.9z M54,60.1l-0.7,0.7l1.4,1.4c0.8,0.8,0.8,2,0,2.8c-0.4,0.4-0.9,0.6-1.4,0.6  s-1-0.2-1.4-0.6l-1.4-1.4l-2.1,2.1c-0.4,0.4-0.9,0.6-1.4,0.6s-1-0.2-1.4-0.6c-0.8-0.8-0.8-2,0-2.8l5.7-5.7c0.8-0.8,0.8-2,0-2.8  c-0.8-0.8-2-0.8-2.8,0l-4.2,4.2c-1.1,1.1-2.6,1.8-4.2,1.8c-1.6,0-3.1-0.6-4.2-1.8c-1.1-1.1-1.8-2.6-1.8-4.2s0.6-3.1,1.8-4.2l0.7-0.7  l-1.4-1.4c-0.8-0.8-0.8-2,0-2.8c0.8-0.8,2-0.8,2.8,0l1.4,1.4l2.1-2.1c0.8-0.8,2-0.8,2.8,0c0.8,0.8,0.8,2,0,2.8l-5.7,5.7  c-0.4,0.4-0.6,0.9-0.6,1.4s0.2,1,0.6,1.4c0.8,0.8,2.1,0.8,2.8,0l4.2-4.2c2.3-2.3,6.1-2.3,8.5,0C56.3,54,56.3,57.8,54,60.1z"/></svg>
