<svg xmlns:dc="http://purl.org/dc/elements/1.1/" xmlns:cc="http://creativecommons.org/ns#" xmlns:rdf="http://www.w3.org/1999/02/22-rdf-syntax-ns#" xmlns:svg="http://www.w3.org/2000/svg" xmlns="http://www.w3.org/2000/svg" xmlns:sodipodi="http://sodipodi.sourceforge.net/DTD/sodipodi-0.dtd" xmlns:inkscape="http://www.inkscape.org/namespaces/inkscape" version="1.1" x="0px" y="0px" viewBox="0 0 100 125"><g transform="translate(0,-952.36218)"><path d="m 79.031671,961.36234 c 3.72592,0.6828 7.55772,1.3781 11.312648,2.06 1.04294,0.1798 1.82225,1.3026 1.62503,2.3412 l -5.000069,25.9705 c -0.195049,1.0182 -1.29052,1.7723 -2.31253,1.592 l -11.00015,-1.9977 c -1.04294,-0.1798 -1.82225,-1.3025 -1.62503,-2.3412 l 1.93753,-10.1135 c -1.25201,-0.3288 -2.50794,-0.6259 -3.75005,-0.9052 0.51867,8.6065 -0.91391,15.6569 -6.34384,23.09876 l -4.65631,13.9843 7.21885,10.8314 12.65642,8.7088 c 0.52871,0.3592 0.86579,0.9845 0.87501,1.6232 0.17623,2.0806 -0.33363,3.8956 -1.56252,5.4626 -2.10958,1.7935 -3.86967,1.7709 -6.40634,1.6232 -0.42552,0 -0.84841,-0.149 -1.18751,-0.4058 l -12.00017,-8.9898 c -0.10132,-0.074 -0.19563,-0.1579 -0.28125,-0.2497 l -9.50013,-10.4258 c -5.62088,-0.7274 -7.89724,-0.068 -11.0314,2.1539 -0.0206,3.9849 -0.0426,7.9698 -0.0625,11.9547 -0.29726,3.2248 -2.95575,5.9613 -5.96883,5.9621 -2.88401,-0.055 -5.12782,-2.1717 -5.96883,-4.7759 -0.11301,-5.4662 0.17223,-10.9417 0.25,-15.4512 -0.13841,-2.5303 1.17334,-4.6785 2.93754,-5.7435 3.19096,-1.6634 6.38028,-3.3883 9.56258,-5.0878 -0.72346,-3.3372 -1.37707,-6.8126 -1.68752,-11.1437 -7.069519,-7.38236 -8.7198,-14.68626 -7.281349,-23.34846 -1.26256,0.271 -2.54016,0.5517 -3.81255,0.874 l 2.00003,10.3632 c 0.19722,1.0387 -0.58209,2.1614 -1.62503,2.3412 l -11.00015,1.9977 c -1.02201,0.1803 -2.11749,-0.5738 -2.31253,-1.592 l -5.0000705,-25.9705 c -0.19722,-1.0386 0.58209,-2.1614 1.62503,-2.3412 3.8445205,-0.546 7.7831805,-1.6608 11.5938995,-2.0289 0.837061,0.1049 1.56708,0.7943 1.718781,1.6232 l 2.25003,11.7055 c 8.20368,-2.0578 16.23549,-3.0903 24.28158,-3.0903 8.351069,0 16.69155,1.1231 25.219089,3.34 l 2.31258,-11.955 c 0.16191,-0.927 1.05813,-1.6682 2.00003,-1.6543 z m -29.53165,14.2338 c -3.10707,0 -6.22339,0.1763 -9.34388,0.4995 -0.56066,4.2082 -0.79207,7.8225 -0.0312,10.9562 0.73989,3.0476 2.38703,5.7464 5.84383,8.4904 l 8.343869,0 c 2.75721,-2.6754 4.18082,-5.148 4.906311,-8.1158 0.73537,-3.0082 0.81267,-6.6272 0.84376,-11.1748 -3.66998,-0.3543 -7.40621,-0.6473 -10.56269,-0.6555 z m 16.62522,1.9665 -2.09378,-0.5 c -0.0465,3.6024 -0.17395,8.1131 -0.93751,11.3003 -0.93553,3.827 -2.9063,7.3567 -6.53134,10.6753 -0.36658,0.323 -0.85499,0.5046 -1.343771,0.4995 l -10.00013,0 c -0.425519,0 -0.84843,-0.149 -1.18752,-0.4059 -4.39987,-3.3196 -6.830779,-7.0995 -7.812599,-11.1435 -0.79007,-3.5914 -0.56608,-7.6208 -0.19665,-10.9781 l -2.08463,0.5524 c -1.68819,8.5086 -0.72705,14.1631 6.46884,21.3508 0.35005,0.3442 0.56603,0.8212 0.59375,1.31096 0.31405,5.0393 1.05273,8.7275 1.93753,12.6732 0.18459,0.8392 -0.24388,1.7754 -1.00001,2.1851 -3.57934,1.9211 -7.18099,3.8046 -10.7501,5.7429 -0.60204,0.3938 -1.03148,0.9732 -0.93751,2.0915 -0.0752,4.9012 -0.16554,9.8482 -0.25006,14.7649 0.1265,0.7602 0.81588,1.5562 2.00003,1.592 1.11037,-0.01 1.79307,-0.7725 1.93753,-1.8417 0.0199,-4.3714 0.0415,-8.7628 0.0625,-13.1413 0.005,-0.6175 0.31505,-1.2253 0.81251,-1.592 4.21339,-3.1564 8.20487,-4.4077 15.46896,-3.3712 0.4556,0.073 0.88329,0.309 1.18752,0.6555 l 9.71888,10.7067 0.0937,0.062 11.3439,8.5216 c 1.01693,0.302 1.76961,0.157 2.87504,-0.406 0.47213,-0.5192 0.44429,-0.9633 0.43751,-1.6232 l -12.06267,-8.3024 c -0.20842,-0.1413 -0.38973,-0.3224 -0.53126,-0.5306 l -8.00011,-11.9864 c -0.34443,-0.5033 -0.43957,-1.1684 -0.25,-1.748 l 5.00007,-14.98306 c 0.073,-0.2025 0.17894,-0.393 0.3125,-0.562 5.34121,-7.1134 6.36395,-13.0673 5.71883,-21.5692 z m -16.12521,1.8104 c 3.84235,0 7.00009,3.1542 7.00009,6.9921 0,3.838 -3.15774,6.9921 -7.00009,6.9921 -3.84236,0 -7.0001,-3.1541 -7.0001,-6.9921 0,-3.8379 3.15774,-6.9921 7.0001,-6.9921 z m 0,3.9955 c -1.68057,0 -3.00004,1.318 -3.00004,2.9966 0,1.6786 1.31947,2.9966 3.00004,2.9966 1.68056,0 3.00004,-1.318 3.00004,-2.9966 0,-1.6786 -1.31948,-2.9966 -3.00004,-2.9966 z" style="text-indent:0;text-transform:none;direction:ltr;block-progression:tb;baseline-shift:baseline;color:#000000;enable-background:accumulate;" fill="#000000" fill-opacity="1" stroke="none" marker="none" visibility="visible" display="inline" overflow="visible"/></g></svg>
