<svg xmlns="http://www.w3.org/2000/svg" xmlns:xlink="http://www.w3.org/1999/xlink" viewBox="0 0 100 125" version="1.1" x="0px" y="0px"><title>washer</title><desc>Created with Sketch.</desc><g stroke="none" stroke-width="1" fill="none" fill-rule="evenodd"><g fill="currentColor"><g transform="translate(14.000000, 5.000000)"><path d="M0,18.9 L-1.44328993e-15,18.9 C-1.50416177e-15,18.4029437 0.402943725,18 0.9,18 L0.9,18 L71.1,18 C71.5970563,18 72,18.4029437 72,18.9 L72,18.9 L72,88.2 C72,89.1941125 71.1941125,90 70.2,90 L1.8,90 C0.80588745,90 -3.22345535e-16,89.1941125 -4.4408921e-16,88.2 L0,88.2 L0,18.9 Z M36,78.75 C49.6690482,78.75 60.75,67.6690482 60.75,54 C60.75,40.3309518 49.6690482,29.25 36,29.25 C22.3309518,29.25 11.25,40.3309518 11.25,54 C11.25,67.6690482 22.3309518,78.75 36,78.75 Z M52.65,63.4742105 C49.3529219,69.2393398 43.1394321,73.125 36.0175643,73.125 C25.4454179,73.125 16.875,64.5624458 16.875,54 C16.875,43.4375542 25.4454179,34.875 36.0175643,34.875 C43.1394321,34.875 49.3529219,38.7606602 52.65,44.5257895 C49.8108682,46.7113378 47.9816669,50.1422485 47.9816669,54 C47.9816669,57.8577515 49.8108682,61.2886622 52.649999,63.474212 L52.65,63.4742105 Z"/><path d="M0.953740857,1.79905168 C1.02166916,0.805423061 1.85851488,-1.59872116e-15 2.82289417,0 L69.1771058,0 C70.1418544,0 70.9783336,0.805462872 71.0462591,1.79905168 L71.9342761,14.7886158 C71.9356728,14.8090474 71.9363718,14.8295207 71.9363718,14.85 C71.9363718,15.3470563 71.5334281,15.75 71.0363718,15.75 L71.0363718,15.75 L0.963628163,15.75 C0.943148874,15.75 0.922675552,15.749301 0.902243953,15.7479042 C0.406345148,15.7140027 0.031822385,15.2845146 0.0657239478,14.7886158 L0.0657239478,14.7886158 L0.953740857,1.79905168 Z M47.25,10.125 C48.4926407,10.125 49.5,9.11764075 49.5,7.875 C49.5,6.63235925 48.4926407,5.625 47.25,5.625 C46.0073593,5.625 45,6.63235925 45,7.875 C45,9.11764075 46.0073593,10.125 47.25,10.125 Z M56.25,10.125 C57.4926407,10.125 58.5,9.11764075 58.5,7.875 C58.5,6.63235925 57.4926407,5.625 56.25,5.625 C55.0073593,5.625 54,6.63235925 54,7.875 C54,9.11764075 55.0073593,10.125 56.25,10.125 Z M65.25,10.125 C66.4926407,10.125 67.5,9.11764075 67.5,7.875 C67.5,6.63235925 66.4926407,5.625 65.25,5.625 C64.0073593,5.625 63,6.63235925 63,7.875 C63,9.11764075 64.0073593,10.125 65.25,10.125 Z M13.725,7.875 C13.725,5.3897185 11.7102815,3.375 9.225,3.375 C6.7397185,3.375 4.725,5.3897185 4.725,7.875 C4.725,10.3602815 6.7397185,12.375 9.225,12.375 C11.7102815,12.375 13.725,10.3602815 13.725,7.875 Z M6.225,7.875 C6.225,6.21814563 7.56814563,4.875 9.225,4.875 C10.8818544,4.875 12.225,6.21814563 12.225,7.875 C12.225,9.53185437 10.8818544,10.875 9.225,10.875 C7.56814563,10.875 6.225,9.53185437 6.225,7.875 Z"/></g></g></g></svg>
