<svg xmlns="http://www.w3.org/2000/svg" xmlns:xlink="http://www.w3.org/1999/xlink" version="1.1" x="0px" y="0px" viewBox="0 0 60 75" enable-background="new 0 0 60 60" xml:space="preserve"><path d="M45.125,27.4300537h-1.0299683v-7.3299561C44.0950317,12.3200684,37.7750244,6,29.9949951,6  c-7.7699585,0-14.0899658,6.3200684-14.0899658,14.1000977v7.3299561H14.875c-1.75,0-3.1799927,1.4200439-3.1799927,3.1700439  v20.2299805C11.6950073,52.5800781,13.125,54,14.875,54h30.25c1.75,0,3.1799927-1.4199219,3.1799927-3.1699219V30.6000977  C48.3049927,28.8500977,46.875,27.4300537,45.125,27.4300537z M42.0950317,27.4300537H17.9050293v-7.3299561  C17.9050293,13.4300537,23.335022,8,29.9949951,8c6.6700439,0,12.1000366,5.4300537,12.1000366,12.1000977V27.4300537z"/></svg>
